<svg width="163" height="81" viewBox="0 0 163 81" fill="none" xmlns="http://www.w3.org/2000/svg">
<g clip-path="url(#clip0_49_9372)">
<path d="M3.02479 80.0193C2.90617 80.0193 2.80073 79.9799 2.70846 79.8881C2.6162 79.7963 2.57666 79.6914 2.57666 79.5734V67.5471C2.57666 67.416 2.6162 67.298 2.70846 67.2193C2.80073 67.1275 2.90617 67.0881 3.02479 67.0881H4.44827C4.61962 67.0881 4.75142 67.1275 4.8305 67.2062C4.90959 67.2849 4.96231 67.3504 4.98867 67.3767L10.3399 75.6521V67.5471C10.3399 67.416 10.3794 67.298 10.4585 67.2193C10.5376 67.1275 10.643 67.0881 10.788 67.0881H12.3433C12.4751 67.0881 12.5937 67.1275 12.6728 67.2193C12.7651 67.3111 12.8046 67.416 12.8046 67.5471V79.5603C12.8046 79.6914 12.7651 79.8094 12.6728 79.8881C12.5806 79.9799 12.4751 80.0193 12.3565 80.0193H10.9067C10.7353 80.0193 10.6035 79.9799 10.5376 79.8881C10.4585 79.7963 10.4058 79.7439 10.3663 79.7176L5.04139 71.6258V79.5734C5.04139 79.6914 5.00185 79.7963 4.90959 79.8881C4.81732 79.9799 4.71188 80.0193 4.58008 80.0193H3.02479Z" fill="white"/>
<path d="M20.7262 80.203C19.5795 80.203 18.6042 80.0062 17.8002 79.5997C16.9962 79.1931 16.3899 78.6292 15.9681 77.8816C15.5463 77.1341 15.3091 76.2423 15.2563 75.1931C15.2563 74.6816 15.2432 74.1439 15.2432 73.5669C15.2432 72.9898 15.2432 72.439 15.2563 71.9013C15.3091 70.8652 15.5463 69.9735 15.9681 69.2259C16.3899 68.4784 17.0093 67.9013 17.8002 67.4948C18.6042 67.1013 19.5663 66.8915 20.713 66.8915C21.5566 66.8915 22.3078 66.9964 22.98 67.2193C23.6522 67.4423 24.219 67.7439 24.6935 68.1374C25.168 68.5308 25.5239 68.9767 25.7875 69.5013C26.0511 70.0259 26.1829 70.5767 26.1961 71.18C26.1961 71.2849 26.1697 71.3898 26.0906 71.4554C26.0115 71.5341 25.9193 71.5603 25.8006 71.5603H24.0345C23.9027 71.5603 23.784 71.521 23.705 71.4554C23.6127 71.3898 23.56 71.2718 23.5204 71.1144C23.3227 70.3013 22.98 69.7505 22.5056 69.4489C22.0311 69.1472 21.4248 69.003 20.6998 69.003C19.8695 69.003 19.2105 69.239 18.7096 69.698C18.2087 70.1571 17.9451 70.9177 17.9056 71.98C17.8661 72.9898 17.8661 74.0259 17.9056 75.0882C17.9451 76.1505 18.2087 76.9112 18.7096 77.3702C19.2105 77.8292 19.8695 78.0653 20.6998 78.0653C21.4116 78.0653 22.0179 77.9079 22.5056 77.6062C22.9932 77.3046 23.3359 76.7538 23.5204 75.9538C23.56 75.7833 23.6259 75.6653 23.705 75.5997C23.7972 75.5341 23.9027 75.5079 24.0345 75.5079H25.8006C25.9061 75.5079 26.0115 75.5472 26.0906 75.6128C26.1697 75.6915 26.2092 75.7833 26.1961 75.8882C26.1961 76.4915 26.0511 77.0554 25.7875 77.5669C25.5239 78.0784 25.168 78.5374 24.6935 78.9308C24.219 79.3243 23.6522 79.6259 22.98 79.8489C22.3078 80.0718 21.5566 80.1767 20.713 80.1767L20.7262 80.203Z" fill="white"/>
<path d="M33.4054 80.203C32.2983 80.203 31.3625 80.0194 30.5584 79.6521C29.7676 79.2849 29.1481 78.7341 28.7 77.9734C28.2519 77.2128 28.0146 76.2685 27.9751 75.1407C27.9751 74.6161 27.9619 74.0915 27.9619 73.5669C27.9619 73.0423 27.9619 72.5177 27.9751 71.98C28.0146 70.8653 28.2651 69.921 28.7132 69.1734C29.1745 68.4259 29.794 67.862 30.598 67.4685C31.402 67.0882 32.3246 66.8915 33.3922 66.8915C34.4598 66.8915 35.3956 67.0882 36.1996 67.4685C37.0037 67.8489 37.6363 68.4128 38.0976 69.1734C38.5589 69.921 38.8094 70.8653 38.8357 71.98C38.8621 72.5177 38.8753 73.0554 38.8753 73.5669C38.8753 74.0784 38.8753 74.603 38.8357 75.1407C38.7962 76.2685 38.5589 77.2128 38.1108 77.9734C37.6627 78.7341 37.0432 79.2849 36.2392 79.6521C35.4352 80.0194 34.4862 80.203 33.3922 80.203H33.4054ZM33.4054 78.0784C34.2094 78.0784 34.8684 77.8423 35.3693 77.3702C35.8701 76.898 36.1469 76.1243 36.1865 75.0489C36.2128 74.5112 36.226 73.9997 36.226 73.5407C36.226 73.0816 36.226 72.5833 36.1865 72.0587C36.1601 71.3505 36.0283 70.7603 35.7911 70.3144C35.5538 69.8685 35.2243 69.5407 34.8157 69.3308C34.4071 69.121 33.9326 69.0292 33.4054 69.0292C32.8782 69.0292 32.4169 69.1341 32.0083 69.3308C31.5997 69.5275 31.2702 69.8554 31.0329 70.3144C30.7957 70.7603 30.6639 71.3505 30.6375 72.0587C30.6375 72.5833 30.6244 73.0816 30.6244 73.5407C30.6244 73.9997 30.6244 74.498 30.6375 75.0489C30.6771 76.1243 30.9539 76.898 31.4547 77.3702C31.9556 77.8423 32.6146 78.0784 33.4054 78.0784Z" fill="white"/>
<path d="M46.3619 80.2029C45.2284 80.2029 44.2531 80.0062 43.4491 79.6127C42.6451 79.2193 42.0256 78.6554 41.5906 77.9078C41.1557 77.1603 40.9184 76.2685 40.8789 75.2324C40.8789 74.7078 40.8657 74.1308 40.8657 73.5275C40.8657 72.9242 40.8657 72.3472 40.8789 71.7963C40.9184 70.7734 41.1557 69.8947 41.5906 69.1734C42.0256 68.4521 42.6583 67.8881 43.4623 67.4947C44.2794 67.1013 45.2284 66.9045 46.3488 66.9045C47.2582 66.9045 48.049 67.0226 48.7212 67.2586C49.3934 67.4947 49.9734 67.8095 50.4215 68.1767C50.8696 68.5439 51.2123 68.9504 51.4496 69.3832C51.6868 69.816 51.7923 70.2095 51.8054 70.5898C51.8054 70.6947 51.7923 70.7865 51.7132 70.8652C51.6341 70.9439 51.5418 70.9701 51.41 70.9701H49.4989C49.3802 70.9701 49.288 70.9439 49.2221 70.8914C49.1562 70.839 49.1035 70.7734 49.0507 70.6685C48.9453 70.4062 48.8003 70.157 48.5894 69.9078C48.3785 69.6586 48.0886 69.4488 47.7327 69.2652C47.3768 69.0947 46.9155 69.0029 46.3356 69.0029C45.492 69.0029 44.8198 69.2259 44.319 69.6718C43.8181 70.1177 43.5545 70.8521 43.515 71.875C43.4754 72.9504 43.4754 74.0259 43.515 75.1275C43.5545 76.1767 43.8313 76.9242 44.3453 77.3832C44.8594 77.8422 45.5316 78.0652 46.3751 78.0652C46.9287 78.0652 47.4296 77.9603 47.8645 77.7636C48.2995 77.5668 48.6553 77.2652 48.9058 76.8455C49.1562 76.4259 49.288 75.8881 49.288 75.2324V74.6554H47.021C46.9023 74.6554 46.7969 74.616 46.7046 74.5242C46.6124 74.4324 46.5728 74.3275 46.5728 74.1963V73.2127C46.5728 73.0816 46.6124 72.9636 46.7046 72.8849C46.7969 72.7931 46.9023 72.7537 47.021 72.7537H51.4627C51.5946 72.7537 51.7132 72.7931 51.7923 72.8849C51.8713 72.9767 51.9109 73.0816 51.9109 73.2127V75.1537C51.9109 76.1898 51.6868 77.0816 51.2387 77.8291C50.7905 78.5767 50.1447 79.1537 49.3143 79.5603C48.484 79.9668 47.4955 80.1767 46.3488 80.1767L46.3619 80.2029Z" fill="white"/>
<path d="M59.015 80.0193C58.8964 80.0193 58.791 79.9799 58.6987 79.8881C58.6064 79.7963 58.5669 79.6914 58.5669 79.5734V67.5471C58.5669 67.416 58.6064 67.298 58.6987 67.2193C58.791 67.1275 58.8964 67.0881 59.015 67.0881H67.1869C67.3187 67.0881 67.4373 67.1275 67.5164 67.2193C67.6086 67.3111 67.6482 67.416 67.6482 67.5471V68.7668C67.6482 68.8849 67.6086 68.9898 67.5164 69.0816C67.4241 69.1734 67.3187 69.2127 67.1869 69.2127H61.0843V72.4783H66.7783C66.9101 72.4783 67.0287 72.5176 67.1078 72.5963C67.2 72.675 67.2396 72.7799 67.2396 72.9242V74.0652C67.2396 74.1963 67.2 74.3144 67.1078 74.3931C67.0155 74.4717 66.9101 74.5111 66.7783 74.5111H61.0843V77.8947H67.345C67.4768 77.8947 67.5955 77.934 67.6745 78.0258C67.7668 78.1176 67.8063 78.2226 67.8063 78.3537V79.5734C67.8063 79.6914 67.7668 79.7963 67.6745 79.8881C67.5823 79.9799 67.4768 80.0193 67.345 80.0193H59.0282H59.015Z" fill="white"/>
<path d="M72.6964 80.2029C72.0506 80.2029 71.4707 80.0717 70.9566 79.8225C70.4426 79.5734 70.0208 79.2324 69.7177 78.8127C69.4145 78.393 69.2695 77.9078 69.2695 77.3832C69.2695 76.5176 69.6254 75.8356 70.324 75.3242C71.0357 74.8127 71.9451 74.4717 73.0918 74.3012L75.6357 73.934V73.5406C75.6357 73.0291 75.5038 72.6225 75.2402 72.334C74.9766 72.0455 74.5285 71.9143 73.909 71.9143C73.4609 71.9143 73.105 72.0061 72.8282 72.1766C72.5514 72.3471 72.3406 72.5963 72.2088 72.8848C72.1033 73.0422 71.9715 73.1209 71.787 73.1209H70.324C70.1922 73.1209 70.0867 73.0816 70.0208 73.016C69.9549 72.9373 69.9154 72.8455 69.9154 72.7143C69.9154 72.5176 70.0076 72.2816 70.1658 71.993C70.324 71.7045 70.5612 71.4422 70.8775 71.1668C71.1939 70.8914 71.6025 70.6815 72.1165 70.4979C72.6305 70.3143 73.2368 70.2225 73.9486 70.2225C74.7262 70.2225 75.3852 70.3143 75.9256 70.5111C76.466 70.7078 76.8878 70.957 77.2173 71.2717C77.5336 71.5865 77.7709 71.9668 77.929 72.3996C78.074 72.8324 78.1531 73.2914 78.1531 73.7635V79.5602C78.1531 79.6783 78.1136 79.7832 78.0213 79.875C77.929 79.9668 77.8236 80.0061 77.705 80.0061H76.2024C76.0706 80.0061 75.952 79.9668 75.8729 79.875C75.7938 79.7832 75.7543 79.6783 75.7543 79.5602V78.8389C75.5961 79.0619 75.372 79.2717 75.1084 79.4816C74.8317 79.6914 74.5021 79.8619 74.1199 79.993C73.7377 80.1242 73.2632 80.1897 72.736 80.1897L72.6964 80.2029ZM73.3291 78.4455C73.764 78.4455 74.1595 78.3537 74.5021 78.1701C74.858 77.9865 75.1348 77.6979 75.3325 77.3045C75.5302 76.9111 75.6357 76.4258 75.6357 75.8356V75.4422L73.7772 75.7438C73.0523 75.8488 72.4987 76.0324 72.1429 76.2815C71.787 76.5307 71.6025 76.8324 71.6025 77.1865C71.6025 77.4619 71.6815 77.6848 71.8529 77.8816C72.0242 78.0783 72.2351 78.2094 72.4987 78.3012C72.7623 78.393 73.0259 78.4455 73.3159 78.4455H73.3291Z" fill="white"/>
<path d="M80.934 80.0192C80.8153 80.0192 80.7099 79.9799 80.6176 79.8881C80.5254 79.7963 80.4858 79.6914 80.4858 79.5733V70.8651C80.4858 70.734 80.5254 70.616 80.6176 70.5373C80.7099 70.4455 80.8153 70.4061 80.934 70.4061H82.4365C82.5552 70.4061 82.6738 70.4455 82.766 70.5373C82.8583 70.6291 82.911 70.734 82.911 70.8651V71.6258C83.201 71.2324 83.57 70.9307 84.0182 70.7209C84.4663 70.511 84.9935 70.4061 85.5866 70.4061H86.3511C86.4829 70.4061 86.6015 70.4455 86.6806 70.5373C86.7597 70.6291 86.7992 70.734 86.7992 70.852V72.1766C86.7992 72.2947 86.7597 72.3996 86.6806 72.4914C86.6015 72.5832 86.4961 72.6225 86.3511 72.6225H84.9013C84.3081 72.6225 83.8468 72.7799 83.5173 73.1078C83.1878 73.4356 83.0296 73.8947 83.0296 74.4848V79.5602C83.0296 79.6783 82.9901 79.7832 82.8978 79.875C82.8056 79.9668 82.7001 80.0061 82.5683 80.0061H80.9472L80.934 80.0192Z" fill="white"/>
<path d="M92.5988 80.0194C91.8607 80.0194 91.228 79.8882 90.7272 79.6259C90.2263 79.3636 89.8441 78.9833 89.5937 78.4718C89.3432 77.9603 89.2246 77.3177 89.2246 76.5571V72.3603H87.7616C87.643 72.3603 87.5375 72.321 87.4453 72.2292C87.353 72.1374 87.3135 72.0325 87.3135 71.9013V70.8521C87.3135 70.7341 87.353 70.6292 87.4453 70.5374C87.5375 70.4456 87.643 70.4062 87.7616 70.4062H89.2246V67.3374C89.2246 67.2193 89.2642 67.1144 89.3433 67.0226C89.4223 66.9308 89.5278 66.8915 89.6728 66.8915H91.1753C91.294 66.8915 91.3994 66.9308 91.4917 67.0226C91.5839 67.1144 91.6235 67.2193 91.6235 67.3374V70.4062H93.9432C94.0618 70.4062 94.1673 70.4456 94.2595 70.5374C94.3518 70.6292 94.3913 70.7341 94.3913 70.8521V71.9013C94.3913 72.0325 94.3518 72.1505 94.2595 72.2292C94.1673 72.321 94.0618 72.3603 93.9432 72.3603H91.6235V76.3735C91.6235 76.8849 91.7157 77.2784 91.8871 77.5538C92.0716 77.8423 92.3747 77.9734 92.8229 77.9734H94.1014C94.22 77.9734 94.3254 78.0128 94.4177 78.1046C94.51 78.1964 94.5495 78.3013 94.5495 78.4193V79.5603C94.5495 79.6784 94.51 79.7833 94.4177 79.8751C94.3254 79.9669 94.22 80.0062 94.1014 80.0062H92.5988V80.0194Z" fill="white"/>
<path d="M96.6713 80.0194C96.5527 80.0194 96.4472 79.98 96.355 79.8882C96.2627 79.7964 96.2231 79.6915 96.2231 79.5734V67.3374C96.2231 67.2193 96.2627 67.1144 96.355 67.0226C96.4472 66.9308 96.5527 66.8915 96.6713 66.8915H98.3188C98.4506 66.8915 98.5561 66.9308 98.6483 67.0226C98.7274 67.1144 98.767 67.2193 98.767 67.3374V71.5472C99.0965 71.1538 99.5051 70.839 99.9927 70.5898C100.48 70.3407 101.074 70.2226 101.772 70.2226C102.523 70.2226 103.182 70.3931 103.749 70.7341C104.316 71.0751 104.751 71.5472 105.054 72.1636C105.357 72.78 105.515 73.5144 105.515 74.38V79.5734C105.515 79.6915 105.476 79.7964 105.384 79.8882C105.291 79.98 105.186 80.0194 105.067 80.0194H103.393C103.275 80.0194 103.169 79.98 103.077 79.8882C102.985 79.7964 102.945 79.6915 102.945 79.5734V74.498C102.945 73.7898 102.774 73.2259 102.418 72.8193C102.062 72.4128 101.548 72.2161 100.889 72.2161C100.23 72.2161 99.7291 72.4128 99.3337 72.8193C98.9383 73.2259 98.7538 73.7898 98.7538 74.498V79.5734C98.7538 79.6915 98.7142 79.7964 98.6352 79.8882C98.5561 79.98 98.4506 80.0194 98.3056 80.0194H96.6581H96.6713Z" fill="white"/>
<path d="M117.364 80.203C116.218 80.203 115.242 80.0062 114.438 79.5997C113.634 79.1931 113.028 78.6292 112.606 77.8816C112.184 77.1341 111.947 76.2423 111.895 75.1931C111.895 74.6816 111.881 74.1439 111.881 73.5669C111.881 72.9898 111.881 72.439 111.895 71.9013C111.947 70.8652 112.184 69.9735 112.606 69.2259C113.028 68.4784 113.648 67.9013 114.438 67.4948C115.242 67.1013 116.205 66.8915 117.351 66.8915C118.195 66.8915 118.946 66.9964 119.618 67.2193C120.29 67.4423 120.857 67.7439 121.332 68.1374C121.806 68.5308 122.162 68.9767 122.426 69.5013C122.689 70.0259 122.821 70.5767 122.834 71.18C122.834 71.2849 122.808 71.3898 122.729 71.4554C122.65 71.5341 122.557 71.5603 122.439 71.5603H120.673C120.541 71.5603 120.422 71.521 120.343 71.4554C120.251 71.3898 120.198 71.2718 120.159 71.1144C119.961 70.3013 119.618 69.7505 119.144 69.4489C118.669 69.1472 118.063 69.003 117.338 69.003C116.508 69.003 115.849 69.239 115.348 69.698C114.847 70.1571 114.583 70.9177 114.544 71.98C114.504 72.9898 114.504 74.0259 114.544 75.0882C114.583 76.1505 114.847 76.9112 115.348 77.3702C115.849 77.8292 116.508 78.0653 117.338 78.0653C118.05 78.0653 118.656 77.9079 119.144 77.6062C119.631 77.3046 119.974 76.7538 120.159 75.9538C120.198 75.7833 120.264 75.6653 120.343 75.5997C120.435 75.5341 120.541 75.5079 120.673 75.5079H122.439C122.544 75.5079 122.65 75.5472 122.729 75.6128C122.808 75.6915 122.847 75.7833 122.834 75.8882C122.834 76.4915 122.689 77.0554 122.426 77.5669C122.162 78.0784 121.806 78.5374 121.332 78.9308C120.857 79.3243 120.29 79.6259 119.618 79.8489C118.946 80.0718 118.195 80.1767 117.351 80.1767L117.364 80.203Z" fill="white"/>
<path d="M125.299 80.0194C125.181 80.0194 125.075 79.98 124.983 79.8882C124.891 79.7964 124.851 79.6915 124.851 79.5734V67.3374C124.851 67.2193 124.891 67.1144 124.983 67.0226C125.075 66.9308 125.181 66.8915 125.299 66.8915H126.947C127.079 66.8915 127.184 66.9308 127.276 67.0226C127.355 67.1144 127.395 67.2193 127.395 67.3374V71.5472C127.724 71.1538 128.133 70.839 128.621 70.5898C129.108 70.3407 129.701 70.2226 130.4 70.2226C131.151 70.2226 131.81 70.3931 132.377 70.7341C132.944 71.0751 133.379 71.5472 133.682 72.1636C133.985 72.78 134.143 73.5144 134.143 74.38V79.5734C134.143 79.6915 134.104 79.7964 134.011 79.8882C133.919 79.98 133.814 80.0194 133.695 80.0194H132.021C131.903 80.0194 131.797 79.98 131.705 79.8882C131.613 79.7964 131.573 79.6915 131.573 79.5734V74.498C131.573 73.7898 131.402 73.2259 131.046 72.8193C130.69 72.4128 130.176 72.2161 129.517 72.2161C128.858 72.2161 128.357 72.4128 127.962 72.8193C127.566 73.2259 127.382 73.7898 127.382 74.498V79.5734C127.382 79.6915 127.342 79.7964 127.263 79.8882C127.184 79.98 127.079 80.0194 126.934 80.0194H125.286H125.299Z" fill="white"/>
<path d="M139.31 80.2029C138.664 80.2029 138.084 80.0717 137.57 79.8225C137.056 79.5734 136.634 79.2324 136.331 78.8127C136.028 78.393 135.883 77.9078 135.883 77.3832C135.883 76.5176 136.239 75.8356 136.937 75.3242C137.649 74.8127 138.558 74.4717 139.705 74.3012L142.249 73.934V73.5406C142.249 73.0291 142.117 72.6225 141.854 72.334C141.59 72.0455 141.142 71.9143 140.522 71.9143C140.074 71.9143 139.718 72.0061 139.442 72.1766C139.165 72.3471 138.954 72.5963 138.822 72.8848C138.717 73.0422 138.585 73.1209 138.4 73.1209H136.937C136.805 73.1209 136.7 73.0816 136.634 73.016C136.568 72.9373 136.529 72.8455 136.529 72.7143C136.529 72.5176 136.621 72.2816 136.779 71.993C136.937 71.7045 137.174 71.4422 137.491 71.1668C137.807 70.8914 138.216 70.6815 138.73 70.4979C139.244 70.3143 139.85 70.2225 140.562 70.2225C141.339 70.2225 141.999 70.3143 142.539 70.5111C143.079 70.7078 143.501 70.957 143.831 71.2717C144.147 71.5865 144.384 71.9668 144.542 72.3996C144.687 72.8324 144.766 73.2914 144.766 73.7635V79.5602C144.766 79.6783 144.727 79.7832 144.635 79.875C144.542 79.9668 144.437 80.0061 144.318 80.0061H142.816C142.684 80.0061 142.565 79.9668 142.486 79.875C142.407 79.7832 142.368 79.6783 142.368 79.5602V78.8389C142.209 79.0619 141.985 79.2717 141.722 79.4816C141.445 79.6914 141.115 79.8619 140.733 79.993C140.351 80.1242 139.876 80.1897 139.349 80.1897L139.31 80.2029ZM139.942 78.4455C140.377 78.4455 140.773 78.3537 141.115 78.1701C141.471 77.9865 141.748 77.6979 141.946 77.3045C142.143 76.9111 142.249 76.4258 142.249 75.8356V75.4422L140.39 75.7438C139.666 75.8488 139.112 76.0324 138.756 76.2815C138.4 76.5307 138.216 76.8324 138.216 77.1865C138.216 77.4619 138.295 77.6848 138.466 77.8816C138.638 78.0783 138.848 78.2094 139.112 78.3012C139.376 78.393 139.639 78.4455 139.929 78.4455H139.942Z" fill="white"/>
<path d="M147.482 68.8193C147.363 68.8193 147.258 68.78 147.165 68.6882C147.073 68.5963 147.034 68.4914 147.034 68.3734V67.0488C147.034 66.9308 147.073 66.8259 147.165 66.7341C147.258 66.6422 147.363 66.6029 147.482 66.6029H149.169C149.301 66.6029 149.419 66.6422 149.498 66.7341C149.591 66.8259 149.63 66.9308 149.63 67.0488V68.3734C149.63 68.4914 149.591 68.5963 149.498 68.6882C149.406 68.78 149.301 68.8193 149.169 68.8193H147.482ZM147.561 80.0193C147.442 80.0193 147.337 79.98 147.245 79.8881C147.152 79.7963 147.113 79.6914 147.113 79.5734V70.8521C147.113 70.734 147.152 70.6291 147.245 70.5373C147.337 70.4455 147.442 70.4062 147.561 70.4062H149.103C149.235 70.4062 149.34 70.4455 149.433 70.5373C149.512 70.6291 149.551 70.734 149.551 70.8521V79.5734C149.551 79.6914 149.512 79.7963 149.433 79.8881C149.353 79.98 149.248 80.0193 149.103 80.0193H147.561Z" fill="white"/>
<path d="M152.833 80.0193C152.714 80.0193 152.609 79.98 152.517 79.8882C152.424 79.7964 152.385 79.6915 152.385 79.5734V70.8521C152.385 70.7341 152.424 70.6292 152.517 70.5374C152.609 70.4456 152.714 70.4062 152.833 70.4062H154.362C154.48 70.4062 154.586 70.4456 154.678 70.5374C154.77 70.6292 154.81 70.7341 154.81 70.8521V71.6128C155.126 71.2193 155.548 70.8915 156.049 70.6292C156.55 70.3669 157.169 70.2357 157.921 70.2357C158.672 70.2357 159.331 70.4062 159.884 70.7472C160.438 71.0882 160.873 71.5603 161.176 72.1767C161.479 72.7931 161.637 73.5275 161.637 74.3931V79.5865C161.637 79.7046 161.598 79.8095 161.506 79.9013C161.413 79.9931 161.308 80.0324 161.189 80.0324H159.555C159.436 80.0324 159.331 79.9931 159.239 79.9013C159.146 79.8095 159.107 79.7046 159.107 79.5865V74.5111C159.107 73.8029 158.935 73.239 158.58 72.8324C158.224 72.4259 157.71 72.2292 157.051 72.2292C156.392 72.2292 155.891 72.4259 155.509 72.8324C155.126 73.239 154.929 73.8029 154.929 74.5111V79.5865C154.929 79.7046 154.889 79.8095 154.797 79.9013C154.705 79.9931 154.599 80.0324 154.48 80.0324H152.846L152.833 80.0193Z" fill="white"/>
<path d="M57.4995 5.75043C61.9808 10.5635 64.9332 12.5963 68.9796 16.5439C81.3165 16.5439 93.6401 16.5439 105.977 16.5439V5.75043C89.8178 5.75043 73.6587 5.75043 57.4995 5.75043Z" fill="white"/>
<path d="M106.148 16.7013H68.9136L68.8609 16.6488C67.2529 15.075 65.7899 13.7898 64.3796 12.5439C62.2575 10.6816 60.0696 8.75373 57.3808 5.85537L57.1304 5.57996H106.161V16.7013H106.148ZM69.0454 16.3734H105.819V5.90782H57.8817C60.4518 8.64881 62.5607 10.498 64.6036 12.2947C66.0008 13.5275 67.4506 14.8127 69.0586 16.3603L69.0454 16.3734Z" fill="white"/>
<path d="M57.4995 43.8094C61.9808 48.6225 64.9332 50.6553 68.9796 54.6028C81.3165 54.6028 93.6401 54.6028 105.977 54.6028V43.8094C89.8178 43.8094 73.6587 43.8094 57.4995 43.8094Z" fill="white"/>
<path d="M106.148 54.7733H68.9136L68.8609 54.7209C67.2529 53.1471 65.7899 51.8619 64.3664 50.616C62.2444 48.7537 60.0564 46.8258 57.3676 43.9274L57.1172 43.652H106.148V54.7733ZM69.0454 54.4455H105.819V43.9799H57.8817C60.4518 46.7209 62.5607 48.5701 64.6036 50.3668C66.0008 51.5996 67.4506 52.8717 69.0586 54.4324L69.0454 54.4455Z" fill="white"/>
<path d="M63.9444 30.511C66.0796 32.2553 68.5443 33.5668 70.4687 35.5865C81.3425 35.5865 92.2163 35.5865 103.09 35.5865H105.99V24.793H72.7884C68.3335 24.793 63.8917 24.793 59.4367 24.793C58.9095 24.793 58.1582 24.5438 58.145 25.4225C60.1484 27.3373 62.4023 28.8192 63.9444 30.4979V30.511Z" fill="white"/>
<path d="M106.148 35.7439H70.3895L70.3368 35.6914C69.1506 34.4455 67.7271 33.4488 66.3564 32.4914C65.5128 31.9012 64.6429 31.298 63.8257 30.6291H63.8125C62.9822 29.7111 61.9277 28.8586 60.8206 27.9537C59.898 27.193 58.9358 26.4193 58.0264 25.5406L57.9736 25.4881V25.4225C57.9736 25.134 58.0527 24.9242 58.2109 24.793C58.4613 24.5701 58.8304 24.5963 59.1467 24.6226C59.2521 24.6226 59.3312 24.6225 59.4367 24.6357C62.8504 24.6357 66.2641 24.6225 69.6646 24.6357H106.161V35.757L106.148 35.7439ZM70.5345 35.416H105.818V24.9504H69.6514C66.2509 24.9504 62.8372 24.9504 59.4235 24.9504C59.3312 24.9504 59.2258 24.9504 59.1203 24.9373C58.8567 24.9111 58.5667 24.898 58.4218 25.0291C58.3559 25.0947 58.3163 25.1996 58.3031 25.357C59.1862 26.1963 60.122 26.957 61.0315 27.7045C62.1518 28.6094 63.2062 29.4619 64.0498 30.393C64.8538 31.0488 65.7105 31.6521 66.5541 32.2291C67.9248 33.1865 69.3483 34.1832 70.5345 35.416Z" fill="white"/>
<path d="M33.867 18.9307L1.12695 0.478271V10.1963V52.4258H9.64148L10.0237 15.2979L33.867 29.0029V18.9307Z" fill="white"/>
<path d="M9.81278 52.5963H0.96875V0.202881L1.21918 0.347143L34.0383 18.8389V29.2914L33.7879 29.1471L10.1818 15.5865L9.81278 52.5963ZM1.29826 52.2685H9.48327L9.8655 15.0226L10.1159 15.1668L33.722 28.7275V19.0357L1.29826 0.766815V52.2685Z" fill="white"/>
<path d="M15.7573 39.6258L48.4974 58.0783V48.3602V6.13074H39.9829L39.6138 43.2586L15.7573 29.5537V39.6258Z" fill="white"/>
<path d="M48.6555 58.3537L48.4051 58.2094L15.5859 39.7176V29.2652L15.8364 29.4094L39.4424 42.9701L39.8115 5.96027H48.6555V58.3537ZM15.9154 39.534L48.326 57.8029V6.28813H40.141L39.7719 43.534L39.5215 43.3898L15.9154 29.8291V39.5209V39.534Z" fill="white"/>
<path d="M162.745 49.6455C157.657 54.9701 150.526 58.3799 142.592 58.5898V44.9898C147.218 44.7275 151.304 42.4193 153.927 38.957L162.745 49.6455Z" fill="white"/>
<path d="M142.434 58.7603V44.8324H142.592C147.034 44.5701 151.119 42.3931 153.795 38.8521L153.927 38.6816L154.059 38.839L162.969 49.6324L162.863 49.7373C157.525 55.3242 150.329 58.5242 142.592 58.734H142.42L142.434 58.7603ZM142.763 45.1472V58.4193C150.289 58.1701 157.301 55.0488 162.534 49.6324L153.94 39.2193C151.238 42.6947 147.179 44.8455 142.763 45.1472Z" fill="white"/>
<path d="M162.652 10.0258L153.835 20.6881C151.238 17.2914 147.179 15.0225 142.592 14.7864V1.16022C150.46 1.38317 157.578 4.74054 162.652 10.0258Z" fill="white"/>
<path d="M153.835 20.9504L153.703 20.7799C151.04 17.3045 146.994 15.1799 142.579 14.9438H142.42V0.989746H142.592C150.289 1.2127 157.459 4.37335 162.771 9.90778L162.876 10.0127L162.784 10.1307L153.835 20.9504ZM142.763 14.6291C147.139 14.9045 151.159 17.0029 153.848 20.4258L162.441 10.0389C157.248 4.67499 150.263 1.59302 142.763 1.34384V14.6422V14.6291Z" fill="white"/>
<path d="M126.591 29.8816C126.591 35.4291 129.609 40.2947 134.13 42.9308V57.5668C121.899 54.2488 112.923 43.1144 112.923 29.8816C112.923 16.6488 121.899 5.51438 134.13 2.19635V16.8324C129.609 19.4685 126.591 24.3341 126.591 29.8816Z" fill="white"/>
<path d="M134.301 57.7767L134.09 57.7242C121.53 54.3275 112.765 42.8783 112.765 29.8816C112.765 16.8849 121.53 5.43569 134.09 2.03897L134.301 1.98651V16.9242L134.222 16.9767C129.622 19.6521 126.762 24.6095 126.762 29.8816C126.762 35.1537 129.622 40.1111 134.222 42.7865L134.301 42.839V57.7767ZM133.972 2.40618C121.675 5.84225 113.094 17.1078 113.094 29.8685C113.094 42.6291 121.675 53.9078 133.972 57.3308V43.0095C129.319 40.2554 126.433 35.2324 126.433 29.8685C126.433 24.5045 129.319 19.4685 133.972 16.7275V2.40618Z" fill="white"/>
</g>
<defs>
<clipPath id="clip0_49_9372">
<rect width="162" height="80" fill="white" transform="translate(0.96875 0.202881)"/>
</clipPath>
</defs>
</svg>
