<svg width="162" height="81" viewBox="0 0 162 81" fill="none" xmlns="http://www.w3.org/2000/svg">
<g id="Layer_1" clip-path="url(#clip0_49_3946)">
<g id="Group">
<path id="Vector" d="M2.05555 80.0083C1.93693 80.0083 1.83149 79.9689 1.73923 79.8771C1.64696 79.7853 1.60742 79.6804 1.60742 79.5624V67.5362C1.60742 67.405 1.64696 67.287 1.73923 67.2083C1.83149 67.1165 1.93693 67.0771 2.05555 67.0771H3.47904C3.65038 67.0771 3.78218 67.1165 3.86127 67.1952C3.94035 67.2739 3.99307 67.3394 4.01943 67.3657L9.37066 75.6411V67.5362C9.37066 67.405 9.4102 67.287 9.48929 67.2083C9.56837 67.1165 9.67381 67.0771 9.8188 67.0771H11.3741C11.5059 67.0771 11.6245 67.1165 11.7036 67.2083C11.7959 67.3001 11.8354 67.405 11.8354 67.5362V79.5493C11.8354 79.6804 11.7959 79.7985 11.7036 79.8771C11.6113 79.9689 11.5059 80.0083 11.3873 80.0083H9.93742C9.76607 80.0083 9.63427 79.9689 9.56837 79.8771C9.48929 79.7853 9.43656 79.7329 9.39702 79.7067L4.07215 71.6149V79.5624C4.07215 79.6804 4.03261 79.7853 3.94035 79.8771C3.84809 79.9689 3.74264 80.0083 3.61084 80.0083H2.05555Z" fill="white"/>
<path id="Vector_2" d="M19.7565 80.192C18.6098 80.192 17.6344 79.9953 16.8304 79.5887C16.0264 79.1821 15.4201 78.6182 14.9984 77.8707C14.5766 77.1231 14.3393 76.2313 14.2866 75.1821C14.2866 74.6707 14.2734 74.133 14.2734 73.5559C14.2734 72.9789 14.2734 72.428 14.2866 71.8903C14.3393 70.8543 14.5766 69.9625 14.9984 69.2149C15.4201 68.4674 16.0396 67.8903 16.8304 67.4838C17.6344 67.0903 18.5966 66.8805 19.7433 66.8805C20.5868 66.8805 21.3381 66.9854 22.0103 67.2084C22.6825 67.4313 23.2493 67.733 23.7238 68.1264C24.1983 68.5198 24.5541 68.9657 24.8177 69.4903C25.0813 70.0149 25.2131 70.5657 25.2263 71.169C25.2263 71.2739 25.2 71.3789 25.1209 71.4444C25.0418 71.5231 24.9495 71.5493 24.8309 71.5493H23.0647C22.9329 71.5493 22.8143 71.51 22.7352 71.4444C22.643 71.3789 22.5903 71.2608 22.5507 71.1034C22.353 70.2903 22.0103 69.7395 21.5358 69.4379C21.0613 69.1362 20.455 68.992 19.7301 68.992C18.8997 68.992 18.2407 69.228 17.7399 69.6871C17.239 70.1461 16.9754 70.9067 16.9359 71.969C16.8963 72.9789 16.8963 74.0149 16.9359 75.0772C16.9754 76.1395 17.239 76.9002 17.7399 77.3592C18.2407 77.8182 18.8997 78.0543 19.7301 78.0543C20.4419 78.0543 21.0482 77.8969 21.5358 77.5953C22.0235 77.2936 22.3662 76.7428 22.5507 75.9428C22.5903 75.7723 22.6562 75.6543 22.7352 75.5887C22.8275 75.5231 22.9329 75.4969 23.0647 75.4969H24.8309C24.9364 75.4969 25.0418 75.5362 25.1209 75.6018C25.2 75.6805 25.2395 75.7723 25.2263 75.8772C25.2263 76.4805 25.0813 77.0444 24.8177 77.5559C24.5541 78.0674 24.1983 78.5264 23.7238 78.9198C23.2493 79.3133 22.6825 79.6149 22.0103 79.8379C21.3381 80.0608 20.5868 80.1657 19.7433 80.1657L19.7565 80.192Z" fill="white"/>
<path id="Vector_3" d="M32.4357 80.192C31.3285 80.192 30.3927 80.0084 29.5887 79.6412C28.7979 79.2739 28.1784 78.7231 27.7303 77.9625C27.2822 77.2018 27.0449 76.2575 27.0054 75.1297C27.0054 74.6051 26.9922 74.0805 26.9922 73.5559C26.9922 73.0313 26.9922 72.5067 27.0054 71.969C27.0449 70.8543 27.2953 69.91 27.7435 69.1625C28.2048 68.4149 28.8243 67.851 29.6283 67.4575C30.4323 67.0772 31.3549 66.8805 32.4225 66.8805C33.4901 66.8805 34.4259 67.0772 35.2299 67.4575C36.0339 67.8379 36.6666 68.4018 37.1279 69.1625C37.5892 69.91 37.8396 70.8543 37.866 71.969C37.8924 72.5067 37.9055 73.0444 37.9055 73.5559C37.9055 74.0674 37.9055 74.592 37.866 75.1297C37.8265 76.2575 37.5892 77.2018 37.1411 77.9625C36.6929 78.7231 36.0735 79.2739 35.2695 79.6412C34.4655 80.0084 33.5165 80.192 32.4225 80.192H32.4357ZM32.4357 78.0674C33.2397 78.0674 33.8987 77.8313 34.3996 77.3592C34.9004 76.8871 35.1772 76.1133 35.2167 75.0379C35.2431 74.5002 35.2563 73.9887 35.2563 73.5297C35.2563 73.0707 35.2563 72.5723 35.2167 72.0477C35.1904 71.3395 35.0586 70.7493 34.8213 70.3034C34.5841 69.8575 34.2546 69.5297 33.846 69.3198C33.4374 69.11 32.9629 69.0182 32.4357 69.0182C31.9085 69.0182 31.4472 69.1231 31.0386 69.3198C30.63 69.5166 30.3005 69.8444 30.0632 70.3034C29.826 70.7493 29.6942 71.3395 29.6678 72.0477C29.6678 72.5723 29.6546 73.0707 29.6546 73.5297C29.6546 73.9887 29.6546 74.4871 29.6678 75.0379C29.7073 76.1133 29.9841 76.8871 30.485 77.3592C30.9858 77.8313 31.6449 78.0674 32.4357 78.0674Z" fill="white"/>
<path id="Vector_4" d="M45.3927 80.1919C44.2592 80.1919 43.2838 79.9952 42.4798 79.6018C41.6758 79.2083 41.0564 78.6444 40.6214 77.8968C40.1865 77.1493 39.9492 76.2575 39.9097 75.2214C39.9097 74.6968 39.8965 74.1198 39.8965 73.5165C39.8965 72.9132 39.8965 72.3362 39.9097 71.7854C39.9492 70.7624 40.1865 69.8837 40.6214 69.1624C41.0564 68.4411 41.689 67.8772 42.493 67.4837C43.3102 67.0903 44.2592 66.8936 45.3795 66.8936C46.289 66.8936 47.0798 67.0116 47.752 67.2477C48.4242 67.4837 49.0041 67.7985 49.4523 68.1657C49.9004 68.5329 50.2431 68.9395 50.4803 69.3722C50.7176 69.805 50.823 70.1985 50.8362 70.5788C50.8362 70.6837 50.823 70.7755 50.7439 70.8542C50.6649 70.9329 50.5726 70.9591 50.4408 70.9591H48.5296C48.411 70.9591 48.3187 70.9329 48.2528 70.8804C48.1869 70.828 48.1342 70.7624 48.0815 70.6575C47.9761 70.3952 47.8311 70.146 47.6202 69.8968C47.4093 69.6477 47.1193 69.4378 46.7635 69.2542C46.4076 69.0837 45.9463 68.9919 45.3663 68.9919C44.5228 68.9919 43.8506 69.2149 43.3497 69.6608C42.8489 70.1067 42.5853 70.8411 42.5457 71.864C42.5062 72.9395 42.5062 74.0149 42.5457 75.1165C42.5853 76.1657 42.8621 76.9132 43.3761 77.3722C43.8901 77.8313 44.5623 78.0542 45.4059 78.0542C45.9595 78.0542 46.4603 77.9493 46.8953 77.7526C47.3302 77.5558 47.6861 77.2542 47.9365 76.8345C48.1869 76.4149 48.3187 75.8772 48.3187 75.2214V74.6444H46.0517C45.9331 74.6444 45.8277 74.605 45.7354 74.5132C45.6431 74.4214 45.6036 74.3165 45.6036 74.1854V73.2017C45.6036 73.0706 45.6431 72.9526 45.7354 72.8739C45.8277 72.7821 45.9331 72.7427 46.0517 72.7427H50.4935C50.6253 72.7427 50.7439 72.7821 50.823 72.8739C50.9021 72.9657 50.9416 73.0706 50.9416 73.2017V75.1427C50.9416 76.1788 50.7176 77.0706 50.2694 77.8181C49.8213 78.5657 49.1755 79.1427 48.3451 79.5493C47.5147 79.9558 46.5262 80.1657 45.3795 80.1657L45.3927 80.1919Z" fill="white"/>
<path id="Vector_5" d="M58.0458 80.0083C57.9272 80.0083 57.8217 79.9689 57.7295 79.8771C57.6372 79.7853 57.5977 79.6804 57.5977 79.5624V67.5362C57.5977 67.405 57.6372 67.287 57.7295 67.2083C57.8217 67.1165 57.9272 67.0771 58.0458 67.0771H66.2176C66.3494 67.0771 66.4681 67.1165 66.5471 67.2083C66.6394 67.3001 66.6789 67.405 66.6789 67.5362V68.7558C66.6789 68.8739 66.6394 68.9788 66.5471 69.0706C66.4549 69.1624 66.3494 69.2017 66.2176 69.2017H60.1151V72.4673H65.809C65.9408 72.4673 66.0595 72.5067 66.1385 72.5853C66.2308 72.664 66.2703 72.769 66.2703 72.9132V74.0542C66.2703 74.1853 66.2308 74.3034 66.1385 74.3821C66.0463 74.4608 65.9408 74.5001 65.809 74.5001H60.1151V77.8837H66.3758C66.5076 77.8837 66.6262 77.923 66.7053 78.0149C66.7976 78.1067 66.8371 78.2116 66.8371 78.3427V79.5624C66.8371 79.6804 66.7976 79.7853 66.7053 79.8771C66.613 79.9689 66.5076 80.0083 66.3758 80.0083H58.059H58.0458Z" fill="white"/>
<path id="Vector_6" d="M71.7277 80.1919C71.0818 80.1919 70.5019 80.0607 69.9879 79.8115C69.4738 79.5624 69.0521 79.2214 68.7489 78.8017C68.4458 78.382 68.3008 77.8968 68.3008 77.3722C68.3008 76.5066 68.6567 75.8247 69.3552 75.3132C70.067 74.8017 70.9764 74.4607 72.1231 74.2902L74.6669 73.923V73.5296C74.6669 73.0181 74.5351 72.6115 74.2715 72.323C74.0079 72.0345 73.5598 71.9034 72.9403 71.9034C72.4921 71.9034 72.1363 71.9952 71.8595 72.1656C71.5827 72.3361 71.3718 72.5853 71.24 72.8738C71.1346 73.0312 71.0028 73.1099 70.8182 73.1099H69.3552C69.2234 73.1099 69.118 73.0706 69.0521 73.005C68.9862 72.9263 68.9466 72.8345 68.9466 72.7034C68.9466 72.5066 69.0389 72.2706 69.197 71.982C69.3552 71.6935 69.5925 71.4312 69.9088 71.1558C70.2251 70.8804 70.6337 70.6706 71.1477 70.487C71.6618 70.3033 72.2681 70.2115 72.9798 70.2115C73.7575 70.2115 74.4165 70.3034 74.9569 70.5001C75.4973 70.6968 75.919 70.946 76.2485 71.2607C76.5649 71.5755 76.8021 71.9558 76.9603 72.3886C77.1053 72.8214 77.1844 73.2804 77.1844 73.7525V79.5493C77.1844 79.6673 77.1448 79.7722 77.0526 79.864C76.9603 79.9558 76.8548 79.9952 76.7362 79.9952H75.2337C75.1019 79.9952 74.9832 79.9558 74.9042 79.864C74.8251 79.7722 74.7855 79.6673 74.7855 79.5493V78.8279C74.6274 79.0509 74.4033 79.2607 74.1397 79.4706C73.8629 79.6804 73.5334 79.8509 73.1512 79.982C72.7689 80.1132 72.2944 80.1788 71.7672 80.1788L71.7277 80.1919ZM72.3603 78.4345C72.7953 78.4345 73.1907 78.3427 73.5334 78.1591C73.8893 77.9755 74.166 77.687 74.3638 77.2935C74.5615 76.9001 74.6669 76.4148 74.6669 75.8247V75.4312L72.8085 75.7329C72.0836 75.8378 71.53 76.0214 71.1741 76.2706C70.8182 76.5197 70.6337 76.8214 70.6337 77.1755C70.6337 77.4509 70.7128 77.6738 70.8841 77.8706C71.0555 78.0673 71.2664 78.1984 71.53 78.2902C71.7936 78.382 72.0572 78.4345 72.3472 78.4345H72.3603Z" fill="white"/>
<path id="Vector_7" d="M79.9657 80.0083C79.8471 80.0083 79.7416 79.9689 79.6494 79.8771C79.5571 79.7853 79.5176 79.6804 79.5176 79.5624V70.8542C79.5176 70.723 79.5571 70.605 79.6494 70.5263C79.7416 70.4345 79.8471 70.3951 79.9657 70.3951H81.4683C81.5869 70.3951 81.7055 70.4345 81.7978 70.5263C81.89 70.6181 81.9428 70.723 81.9428 70.8542V71.6148C82.2327 71.2214 82.6018 70.9197 83.0499 70.7099C83.498 70.5001 84.0253 70.3951 84.6184 70.3951H85.3828C85.5146 70.3951 85.6333 70.4345 85.7124 70.5263C85.7914 70.6181 85.831 70.723 85.831 70.841V72.1656C85.831 72.2837 85.7914 72.3886 85.7124 72.4804C85.6333 72.5722 85.5278 72.6115 85.3828 72.6115H83.933C83.3399 72.6115 82.8786 72.7689 82.5491 73.0968C82.2196 73.4247 82.0614 73.8837 82.0614 74.4738V79.5492C82.0614 79.6673 82.0218 79.7722 81.9296 79.864C81.8373 79.9558 81.7319 79.9951 81.6001 79.9951H79.9789L79.9657 80.0083Z" fill="white"/>
<path id="Vector_8" d="M91.6291 80.0084C90.891 80.0084 90.2583 79.8772 89.7575 79.6149C89.2566 79.3526 88.8744 78.9723 88.6239 78.4608C88.3735 77.9493 88.2549 77.3067 88.2549 76.5461V72.3493H86.7919C86.6733 72.3493 86.5678 72.31 86.4756 72.2182C86.3833 72.1264 86.3438 72.0215 86.3438 71.8903V70.8411C86.3438 70.7231 86.3833 70.6182 86.4756 70.5264C86.5678 70.4346 86.6733 70.3952 86.7919 70.3952H88.2549V67.3264C88.2549 67.2084 88.2944 67.1034 88.3735 67.0116C88.4526 66.9198 88.5581 66.8805 88.703 66.8805H90.2056C90.3242 66.8805 90.4297 66.9198 90.5219 67.0116C90.6142 67.1034 90.6537 67.2084 90.6537 67.3264V70.3952H92.9735C93.0921 70.3952 93.1975 70.4346 93.2898 70.5264C93.3821 70.6182 93.4216 70.7231 93.4216 70.8411V71.8903C93.4216 72.0215 93.3821 72.1395 93.2898 72.2182C93.1975 72.31 93.0921 72.3493 92.9735 72.3493H90.6537V76.3625C90.6537 76.8739 90.746 77.2674 90.9173 77.5428C91.1019 77.8313 91.405 77.9625 91.8531 77.9625H93.1316C93.2503 77.9625 93.3557 78.0018 93.448 78.0936C93.5402 78.1854 93.5798 78.2903 93.5798 78.4084V79.5493C93.5798 79.6674 93.5402 79.7723 93.448 79.8641C93.3557 79.9559 93.2503 79.9952 93.1316 79.9952H91.6291V80.0084Z" fill="white"/>
<path id="Vector_9" d="M95.702 80.0084C95.5834 80.0084 95.478 79.969 95.3857 79.8772C95.2935 79.7854 95.2539 79.6805 95.2539 79.5625V67.3264C95.2539 67.2084 95.2935 67.1034 95.3857 67.0116C95.478 66.9198 95.5834 66.8805 95.702 66.8805H97.3496C97.4814 66.8805 97.5868 66.9198 97.6791 67.0116C97.7582 67.1034 97.7977 67.2084 97.7977 67.3264V71.5362C98.1272 71.1428 98.5358 70.828 99.0235 70.5789C99.5112 70.3297 100.104 70.2116 100.803 70.2116C101.554 70.2116 102.213 70.3821 102.78 70.7231C103.347 71.0641 103.782 71.5362 104.085 72.1526C104.388 72.769 104.546 73.5034 104.546 74.369V79.5625C104.546 79.6805 104.507 79.7854 104.414 79.8772C104.322 79.969 104.217 80.0084 104.098 80.0084H102.424C102.305 80.0084 102.2 79.969 102.108 79.8772C102.015 79.7854 101.976 79.6805 101.976 79.5625V74.4871C101.976 73.7789 101.805 73.2149 101.449 72.8084C101.093 72.4018 100.579 72.2051 99.9198 72.2051C99.2607 72.2051 98.7599 72.4018 98.3645 72.8084C97.9691 73.2149 97.7845 73.7789 97.7845 74.4871V79.5625C97.7845 79.6805 97.745 79.7854 97.6659 79.8772C97.5868 79.969 97.4814 80.0084 97.3364 80.0084H95.6889H95.702Z" fill="white"/>
<path id="Vector_10" d="M116.395 80.192C115.248 80.192 114.273 79.9953 113.469 79.5887C112.665 79.1821 112.059 78.6182 111.637 77.8707C111.215 77.1231 110.978 76.2313 110.925 75.1821C110.925 74.6707 110.912 74.133 110.912 73.5559C110.912 72.9789 110.912 72.428 110.925 71.8903C110.978 70.8543 111.215 69.9625 111.637 69.2149C112.059 68.4674 112.678 67.8903 113.469 67.4838C114.273 67.0903 115.235 66.8805 116.382 66.8805C117.226 66.8805 117.977 66.9854 118.649 67.2084C119.321 67.4313 119.888 67.733 120.362 68.1264C120.837 68.5198 121.193 68.9657 121.456 69.4903C121.72 70.0149 121.852 70.5657 121.865 71.169C121.865 71.2739 121.839 71.3789 121.76 71.4444C121.68 71.5231 121.588 71.5493 121.47 71.5493H119.703C119.572 71.5493 119.453 71.51 119.374 71.4444C119.282 71.3789 119.229 71.2608 119.189 71.1034C118.992 70.2903 118.649 69.7395 118.174 69.4379C117.7 69.1362 117.094 68.992 116.369 68.992C115.538 68.992 114.879 69.228 114.379 69.6871C113.878 70.1461 113.614 70.9067 113.575 71.969C113.535 72.9789 113.535 74.0149 113.575 75.0772C113.614 76.1395 113.878 76.9002 114.379 77.3592C114.879 77.8182 115.538 78.0543 116.369 78.0543C117.081 78.0543 117.687 77.8969 118.174 77.5953C118.662 77.2936 119.005 76.7428 119.189 75.9428C119.229 75.7723 119.295 75.6543 119.374 75.5887C119.466 75.5231 119.572 75.4969 119.703 75.4969H121.47C121.575 75.4969 121.68 75.5362 121.76 75.6018C121.839 75.6805 121.878 75.7723 121.865 75.8772C121.865 76.4805 121.72 77.0444 121.456 77.5559C121.193 78.0674 120.837 78.5264 120.362 78.9198C119.888 79.3133 119.321 79.6149 118.649 79.8379C117.977 80.0608 117.226 80.1657 116.382 80.1657L116.395 80.192Z" fill="white"/>
<path id="Vector_11" d="M124.329 80.0084C124.21 80.0084 124.105 79.969 124.013 79.8772C123.92 79.7854 123.881 79.6805 123.881 79.5625V67.3264C123.881 67.2084 123.92 67.1034 124.013 67.0116C124.105 66.9198 124.21 66.8805 124.329 66.8805H125.977C126.108 66.8805 126.214 66.9198 126.306 67.0116C126.385 67.1034 126.425 67.2084 126.425 67.3264V71.5362C126.754 71.1428 127.163 70.828 127.65 70.5789C128.138 70.3297 128.731 70.2116 129.43 70.2116C130.181 70.2116 130.84 70.3821 131.407 70.7231C131.974 71.0641 132.409 71.5362 132.712 72.1526C133.015 72.769 133.173 73.5034 133.173 74.369V79.5625C133.173 79.6805 133.133 79.7854 133.041 79.8772C132.949 79.969 132.844 80.0084 132.725 80.0084H131.051C130.932 80.0084 130.827 79.969 130.735 79.8772C130.642 79.7854 130.603 79.6805 130.603 79.5625V74.4871C130.603 73.7789 130.432 73.2149 130.076 72.8084C129.72 72.4018 129.206 72.2051 128.547 72.2051C127.888 72.2051 127.387 72.4018 126.991 72.8084C126.596 73.2149 126.411 73.7789 126.411 74.4871V79.5625C126.411 79.6805 126.372 79.7854 126.293 79.8772C126.214 79.969 126.108 80.0084 125.963 80.0084H124.316H124.329Z" fill="white"/>
<path id="Vector_12" d="M138.341 80.1919C137.695 80.1919 137.115 80.0607 136.601 79.8115C136.087 79.5624 135.665 79.2214 135.362 78.8017C135.059 78.382 134.914 77.8968 134.914 77.3722C134.914 76.5066 135.27 75.8247 135.968 75.3132C136.68 74.8017 137.59 74.4607 138.736 74.2902L141.28 73.923V73.5296C141.28 73.0181 141.148 72.6115 140.885 72.323C140.621 72.0345 140.173 71.9034 139.554 71.9034C139.105 71.9034 138.75 71.9952 138.473 72.1656C138.196 72.3361 137.985 72.5853 137.853 72.8738C137.748 73.0312 137.616 73.1099 137.432 73.1099H135.968C135.837 73.1099 135.731 73.0706 135.665 73.005C135.599 72.9263 135.56 72.8345 135.56 72.7034C135.56 72.5066 135.652 72.2706 135.81 71.982C135.968 71.6935 136.206 71.4312 136.522 71.1558C136.838 70.8804 137.247 70.6706 137.761 70.487C138.275 70.3033 138.881 70.2115 139.593 70.2115C140.371 70.2115 141.03 70.3034 141.57 70.5001C142.111 70.6968 142.532 70.946 142.862 71.2607C143.178 71.5755 143.415 71.9558 143.574 72.3886C143.719 72.8214 143.798 73.2804 143.798 73.7525V79.5493C143.798 79.6673 143.758 79.7722 143.666 79.864C143.574 79.9558 143.468 79.9952 143.35 79.9952H141.847C141.715 79.9952 141.597 79.9558 141.517 79.864C141.438 79.7722 141.399 79.6673 141.399 79.5493V78.8279C141.241 79.0509 141.017 79.2607 140.753 79.4706C140.476 79.6804 140.147 79.8509 139.764 79.982C139.382 80.1132 138.908 80.1788 138.38 80.1788L138.341 80.1919ZM138.974 78.4345C139.409 78.4345 139.804 78.3427 140.147 78.1591C140.503 77.9755 140.779 77.687 140.977 77.2935C141.175 76.9001 141.28 76.4148 141.28 75.8247V75.4312L139.422 75.7329C138.697 75.8378 138.143 76.0214 137.787 76.2706C137.432 76.5197 137.247 76.8214 137.247 77.1755C137.247 77.4509 137.326 77.6738 137.497 77.8706C137.669 78.0673 137.88 78.1984 138.143 78.2902C138.407 78.382 138.67 78.4345 138.96 78.4345H138.974Z" fill="white"/>
<path id="Vector_13" d="M146.513 68.8083C146.394 68.8083 146.289 68.769 146.196 68.6772C146.104 68.5854 146.064 68.4804 146.064 68.3624V67.0378C146.064 66.9198 146.104 66.8149 146.196 66.7231C146.289 66.6313 146.394 66.5919 146.513 66.5919H148.2C148.331 66.5919 148.45 66.6313 148.529 66.7231C148.621 66.8149 148.661 66.9198 148.661 67.0378V68.3624C148.661 68.4804 148.621 68.5854 148.529 68.6772C148.437 68.769 148.331 68.8083 148.2 68.8083H146.513ZM146.592 80.0083C146.473 80.0083 146.368 79.969 146.275 79.8772C146.183 79.7854 146.144 79.6804 146.144 79.5624V70.8411C146.144 70.7231 146.183 70.6181 146.275 70.5263C146.368 70.4345 146.473 70.3952 146.592 70.3952H148.134C148.266 70.3952 148.371 70.4345 148.463 70.5263C148.542 70.6181 148.582 70.7231 148.582 70.8411V79.5624C148.582 79.6804 148.542 79.7854 148.463 79.8772C148.384 79.969 148.279 80.0083 148.134 80.0083H146.592Z" fill="white"/>
<path id="Vector_14" d="M151.864 80.0083C151.746 80.0083 151.64 79.969 151.548 79.8772C151.456 79.7854 151.416 79.6805 151.416 79.5624V70.8411C151.416 70.7231 151.456 70.6182 151.548 70.5264C151.64 70.4346 151.746 70.3952 151.864 70.3952H153.393C153.512 70.3952 153.617 70.4346 153.709 70.5264C153.802 70.6182 153.841 70.7231 153.841 70.8411V71.6018C154.158 71.2083 154.579 70.8805 155.08 70.6182C155.581 70.3559 156.2 70.2247 156.952 70.2247C157.703 70.2247 158.362 70.3952 158.916 70.7362C159.469 71.0772 159.904 71.5493 160.207 72.1657C160.51 72.7821 160.669 73.5165 160.669 74.3821V79.5755C160.669 79.6936 160.629 79.7985 160.537 79.8903C160.445 79.9821 160.339 80.0214 160.221 80.0214H158.586C158.468 80.0214 158.362 79.9821 158.27 79.8903C158.178 79.7985 158.138 79.6936 158.138 79.5755V74.5001C158.138 73.7919 157.967 73.228 157.611 72.8215C157.255 72.4149 156.741 72.2182 156.082 72.2182C155.423 72.2182 154.922 72.4149 154.54 72.8215C154.158 73.228 153.96 73.7919 153.96 74.5001V79.5755C153.96 79.6936 153.92 79.7985 153.828 79.8903C153.736 79.9821 153.63 80.0214 153.512 80.0214H151.877L151.864 80.0083Z" fill="white"/>
</g>
<g id="Group_2">
<g id="Group_3">
<path id="Vector_15" d="M56.5312 5.73944C61.0126 10.5526 63.965 12.5853 68.0114 16.5329C80.3482 16.5329 92.6718 16.5329 105.009 16.5329V5.73944C88.8495 5.73944 72.6904 5.73944 56.5312 5.73944Z" fill="white"/>
<path id="Vector_16" d="M105.18 16.6903H67.9454L67.8926 16.6378C66.2846 15.0641 64.8216 13.7788 63.4113 12.5329C61.2893 10.6706 59.1013 8.74274 56.4125 5.84438L56.1621 5.56897H105.193V16.6903H105.18ZM68.0772 16.3624H104.85V5.89684H56.9134C59.4836 8.63782 61.5924 10.487 63.6354 12.2837C65.0325 13.5165 66.4823 14.8018 68.0903 16.3493L68.0772 16.3624Z" fill="white"/>
</g>
<g id="Group_4">
<path id="Vector_17" d="M56.5312 43.7984C61.0126 48.6115 63.965 50.6443 68.0114 54.5918C80.3482 54.5918 92.6718 54.5918 105.009 54.5918V43.7984C88.8495 43.7984 72.6904 43.7984 56.5312 43.7984Z" fill="white"/>
<path id="Vector_18" d="M105.179 54.7624H67.9449L67.8922 54.7099C66.2841 53.1361 64.8211 51.8509 63.3976 50.605C61.2756 48.7427 59.0877 46.8148 56.3989 43.9165L56.1484 43.6411H105.179V54.7624ZM68.0767 54.4345H104.85V43.9689H56.9129C59.4831 46.7099 61.5919 48.5591 63.6349 50.3558C65.032 51.5886 66.4819 52.8607 68.0899 54.4214L68.0767 54.4345Z" fill="white"/>
</g>
<g id="Group_5">
<path id="Vector_19" d="M62.9771 30.5001C65.1123 32.2443 67.577 33.5558 69.5014 35.5755C80.3752 35.5755 91.249 35.5755 102.123 35.5755H105.022V24.782H71.8211C67.3662 24.782 62.9244 24.782 58.4694 24.782C57.9422 24.782 57.1909 24.5328 57.1777 25.4115C59.1812 27.3263 61.435 28.8083 62.9771 30.4869V30.5001Z" fill="white"/>
<path id="Vector_20" d="M105.18 35.7329H69.4218L69.3691 35.6804C68.1828 34.4345 66.7593 33.4378 65.3886 32.4804C64.545 31.8903 63.6751 31.287 62.8579 30.6181H62.8448C62.0144 29.7001 60.96 28.8476 59.8528 27.9427C58.9302 27.1821 57.968 26.4083 57.0586 25.5296L57.0059 25.4771V25.4116C57.0059 25.123 57.0849 24.9132 57.2431 24.7821C57.4935 24.5591 57.8626 24.5853 58.1789 24.6116C58.2844 24.6116 58.3634 24.6116 58.4689 24.6247C61.8826 24.6247 65.2963 24.6116 68.6969 24.6247H105.193V35.746L105.18 35.7329ZM69.5668 35.405H104.851V24.9394H68.6837C65.2831 24.9394 61.8694 24.9394 58.4557 24.9394C58.3634 24.9394 58.258 24.9394 58.1526 24.9263C57.8889 24.9001 57.599 24.887 57.454 25.0181C57.3881 25.0837 57.3485 25.1886 57.3354 25.346C58.2185 26.1853 59.1543 26.946 60.0637 27.6935C61.184 28.5984 62.2385 29.4509 63.082 30.3821C63.886 31.0378 64.7427 31.6411 65.5863 32.2181C66.957 33.1755 68.3805 34.1722 69.5668 35.405Z" fill="white"/>
</g>
<g id="Group_6">
<path id="Vector_21" d="M32.8983 18.9197L0.158203 0.467285V10.1853V52.4148H8.67273L9.05496 15.287L32.8983 28.9919V18.9197Z" fill="white"/>
<path id="Vector_22" d="M8.84403 52.5853H0V0.191895L0.250427 0.336157L33.0696 18.828V29.2804L32.8191 29.1362L9.21308 15.5755L8.84403 52.5853ZM0.329509 52.2575H8.51452L8.89675 15.0116L9.14718 15.1558L32.7532 28.7165V19.0247L0.329509 0.755829V52.2575Z" fill="white"/>
</g>
<g id="Group_7">
<path id="Vector_23" d="M14.7891 39.6148L47.5291 58.0673V48.3493V6.11975H39.0146L38.6455 43.2476L14.7891 29.5427V39.6148Z" fill="white"/>
<path id="Vector_24" d="M47.6868 58.3427L47.4363 58.1985L14.6172 39.7067V29.2542L14.8676 29.3985L38.4737 42.9591L38.8427 5.94928H47.6868V58.3427ZM14.9467 39.5231L47.3572 57.7919V6.27715H39.1722L38.8032 43.5231L38.5528 43.3788L14.9467 29.8181V39.5099V39.5231Z" fill="white"/>
</g>
<g id="Group_8">
<path id="Vector_25" d="M161.776 49.6345C156.688 54.9591 149.558 58.3689 141.623 58.5788V44.9788C146.249 44.7165 150.335 42.4083 152.958 38.946L161.776 49.6345Z" fill="white"/>
<path id="Vector_26" d="M141.464 58.7493V44.8214H141.623C146.064 44.5591 150.15 42.3821 152.826 38.8411L152.958 38.6706L153.089 38.828L161.999 49.6214L161.894 49.7263C156.556 55.3132 149.359 58.5132 141.623 58.7231H141.451L141.464 58.7493ZM141.794 45.1362V58.4083C149.32 58.1591 156.332 55.0378 161.564 49.6214L152.971 39.2083C150.269 42.6837 146.209 44.8345 141.794 45.1362Z" fill="white"/>
</g>
<g id="Group_9">
<path id="Vector_27" d="M161.684 10.0148L152.866 20.6771C150.269 17.2804 146.21 15.0115 141.623 14.7755V1.14923C149.492 1.37218 156.609 4.72956 161.684 10.0148Z" fill="white"/>
<path id="Vector_28" d="M152.865 20.9394L152.734 20.7689C150.071 17.2935 146.025 15.1689 141.609 14.9329H141.451V0.97876H141.623C149.32 1.20171 156.49 4.36237 161.802 9.89679L161.907 10.0017L161.815 10.1197L152.865 20.9394ZM141.794 14.6181C146.17 14.8935 150.19 16.9919 152.879 20.4148L161.472 10.0279C156.279 4.66401 149.293 1.58204 141.794 1.33286V14.6312V14.6181Z" fill="white"/>
</g>
<g id="Group_10">
<path id="Vector_29" d="M125.623 29.8706C125.623 35.4181 128.641 40.2837 133.162 42.9198V57.5559C120.931 54.2378 111.955 43.1034 111.955 29.8706C111.955 16.6378 120.931 5.5034 133.162 2.18536V16.8214C128.641 19.4575 125.623 24.3231 125.623 29.8706Z" fill="white"/>
<path id="Vector_30" d="M133.334 57.7657L133.123 57.7132C120.562 54.3165 111.797 42.8673 111.797 29.8706C111.797 16.8739 120.562 5.42471 133.123 2.02798L133.334 1.97552V16.9132L133.255 16.9657C128.655 19.6411 125.794 24.5985 125.794 29.8706C125.794 35.1427 128.655 40.1001 133.255 42.7755L133.334 42.828V57.7657ZM133.004 2.3952C120.707 5.83126 112.126 17.0968 112.126 29.8575C112.126 42.6181 120.707 53.8968 133.004 57.3198V42.9985C128.351 40.2444 125.465 35.2214 125.465 29.8575C125.465 24.4936 128.351 19.4575 133.004 16.7165V2.3952Z" fill="white"/>
</g>
</g>
</g>
<defs>
<clipPath id="clip0_49_3946">
<rect width="162" height="80" fill="white" transform="translate(0 0.191895)"/>
</clipPath>
</defs>
</svg>
