<svg width="39" height="39" viewBox="0 0 39 39" fill="none" xmlns="http://www.w3.org/2000/svg">
<g id="Send">
<path id="Fill 1" d="M1.44966 37.0817C2.40799 38.0611 3.82633 38.4233 5.14883 38.04L35.988 29.1294C37.3833 28.7422 38.3723 27.6363 38.6387 26.2333C38.9109 24.8035 37.9602 22.9865 36.7182 22.2275L27.0755 16.3395C26.0865 15.7338 24.81 15.8852 23.9916 16.7056L12.9497 27.7475C12.3938 28.3244 11.4738 28.3244 10.918 27.7475C10.3622 27.1936 10.3622 26.2908 10.918 25.7158L21.9791 14.6739C22.7994 13.8536 22.9527 12.5809 22.349 11.59L16.4572 1.91082C15.7672 0.762739 14.5788 0.109155 13.2755 0.109155C13.1222 0.109155 12.9497 0.109159 12.7963 0.130239C11.3013 0.31999 10.113 1.33774 9.67216 2.77524L0.529656 33.3825C0.127159 34.6858 0.491326 36.1042 1.44966 37.0817Z" fill="white"/>
<path id="Combined Shape" opacity="0.4" fill-rule="evenodd" clip-rule="evenodd" d="M36.7485 9.80843C37.1165 9.80843 37.4845 9.94835 37.7644 10.2301C38.3259 10.7917 38.3259 11.7002 37.7644 12.2618L35.1481 14.8799C34.5865 15.4396 33.6761 15.4396 33.1145 14.8799C32.5549 14.3183 32.5549 13.4079 33.1145 12.8463L35.7327 10.2301C36.0125 9.94835 36.3805 9.80843 36.7485 9.80843ZM29.5396 7.523C29.9076 7.523 30.2756 7.66292 30.5554 7.94467C31.117 8.50625 31.117 9.41475 30.5554 9.97633L27.9391 12.5945C27.3776 13.1542 26.4671 13.1542 25.9056 12.5945C25.3459 12.0329 25.3459 11.1225 25.9056 10.5609L28.5237 7.94467C28.8036 7.66292 29.1716 7.523 29.5396 7.523ZM29.0533 0.684332C28.7735 0.402581 28.4055 0.262665 28.0375 0.262665C27.6695 0.262665 27.3015 0.402581 27.0216 0.684332L24.4035 3.30058C23.8438 3.86216 23.8438 4.77258 24.4035 5.33416C24.9651 5.89383 25.8755 5.89383 26.4371 5.33416L29.0533 2.716C29.6149 2.15442 29.6149 1.24592 29.0533 0.684332Z" fill="white"/>
</g>
</svg>